<mxfile host="65bd71144e" modified="2021-01-17T02:20:24.937Z" agent="5.0 (Macintosh; Intel Mac OS X 10_11_6) AppleWebKit/537.36 (KHTML, like Gecko) Code/1.50.1 Chrome/83.0.4103.122 Electron/9.2.1 Safari/537.36" etag="MyjoOvpThh9ylnXaPs_P" version="13.10.0" type="embed">
    <diagram id="pCN76JeKTN9yhabFUj8s" name="Page-1">
        <mxGraphModel dx="1903" dy="595" grid="1" gridSize="10" guides="1" tooltips="1" connect="1" arrows="1" fold="1" page="1" pageScale="1" pageWidth="850" pageHeight="1100" math="0" shadow="0">
            <root>
                <mxCell id="0"/>
                <mxCell id="1" parent="0"/>
                <mxCell id="2" value="versionId" style="rounded=0;whiteSpace=wrap;html=1;fontSize=14;fillColor=#e51400;strokeColor=#B20000;fontColor=#ffffff;fontStyle=1" parent="1" vertex="1">
                    <mxGeometry x="-50" y="450" width="90" height="60" as="geometry"/>
                </mxCell>
                <mxCell id="3" value="correlationId" style="rounded=0;whiteSpace=wrap;html=1;fontSize=14;fillColor=#fa6800;strokeColor=#C73500;fontColor=#ffffff;fontStyle=1" parent="1" vertex="1">
                    <mxGeometry x="40" y="450" width="160" height="60" as="geometry"/>
                </mxCell>
                <mxCell id="4" value="clientId" style="rounded=0;whiteSpace=wrap;html=1;fontSize=14;fillColor=#f0a30a;strokeColor=#BD7000;fontColor=#ffffff;fontStyle=1" parent="1" vertex="1">
                    <mxGeometry x="200" y="450" width="160" height="60" as="geometry"/>
                </mxCell>
                <mxCell id="6" value="topic1" style="rounded=0;whiteSpace=wrap;html=1;fontSize=14;fillColor=#60a917;strokeColor=#2D7600;fontColor=#ffffff;fontStyle=1" parent="1" vertex="1">
                    <mxGeometry x="930" y="450" width="120" height="60" as="geometry"/>
                </mxCell>
                <mxCell id="8" value="......" style="rounded=0;whiteSpace=wrap;html=1;fontSize=14;fillColor=#60a917;strokeColor=#2D7600;fontColor=#ffffff;fontStyle=1" parent="1" vertex="1">
                    <mxGeometry x="1050" y="450" width="120" height="60" as="geometry"/>
                </mxCell>
                <mxCell id="9" value="topicN" style="rounded=0;whiteSpace=wrap;html=1;fontSize=14;fillColor=#60a917;strokeColor=#2D7600;fontColor=#ffffff;fontStyle=1" parent="1" vertex="1">
                    <mxGeometry x="1170" y="450" width="120" height="60" as="geometry"/>
                </mxCell>
                <mxCell id="10" value="short" style="text;html=1;strokeColor=none;fillColor=none;align=center;verticalAlign=middle;whiteSpace=wrap;rounded=0;fontSize=14;fontStyle=1;fontColor=#006666;" parent="1" vertex="1">
                    <mxGeometry x="-20" y="428" width="40" height="20" as="geometry"/>
                </mxCell>
                <mxCell id="11" value="int" style="text;html=1;strokeColor=none;fillColor=none;align=center;verticalAlign=middle;whiteSpace=wrap;rounded=0;fontSize=14;fontStyle=1;fontColor=#006666;" parent="1" vertex="1">
                    <mxGeometry x="100" y="428" width="40" height="20" as="geometry"/>
                </mxCell>
                <mxCell id="13" value="string" style="text;html=1;strokeColor=none;fillColor=none;align=center;verticalAlign=middle;whiteSpace=wrap;rounded=0;fontSize=14;fontStyle=1;fontColor=#006666;" parent="1" vertex="1">
                    <mxGeometry x="260" y="428" width="40" height="20" as="geometry"/>
                </mxCell>
                <mxCell id="20" value="groupId" style="rounded=0;whiteSpace=wrap;html=1;fontSize=14;fillColor=#1ba1e2;strokeColor=#006EAF;fontColor=#ffffff;fontStyle=1" parent="1" vertex="1">
                    <mxGeometry x="360" y="450" width="130" height="60" as="geometry"/>
                </mxCell>
                <mxCell id="21" value="string" style="text;html=1;strokeColor=none;fillColor=none;align=center;verticalAlign=middle;whiteSpace=wrap;rounded=0;fontSize=14;fontStyle=1;fontColor=#006666;" parent="1" vertex="1">
                    <mxGeometry x="405" y="428" width="40" height="20" as="geometry"/>
                </mxCell>
                <mxCell id="26" value="topicCount" style="rounded=0;whiteSpace=wrap;html=1;fontSize=14;fillColor=#e3c800;strokeColor=#B09500;fontColor=#ffffff;fontStyle=1" parent="1" vertex="1">
                    <mxGeometry x="770" y="450" width="160" height="60" as="geometry"/>
                </mxCell>
                <mxCell id="27" value="int" style="text;html=1;strokeColor=none;fillColor=none;align=center;verticalAlign=middle;whiteSpace=wrap;rounded=0;fontSize=14;fontStyle=1;fontColor=#006666;" parent="1" vertex="1">
                    <mxGeometry x="830" y="428" width="40" height="20" as="geometry"/>
                </mxCell>
                <mxCell id="28" value="topicName" style="rounded=0;whiteSpace=wrap;html=1;fillColor=#d5e8d4;strokeColor=#82b366;fontStyle=1" parent="1" vertex="1">
                    <mxGeometry x="630" y="640" width="100" height="50" as="geometry"/>
                </mxCell>
                <mxCell id="29" value="partitionCount" style="rounded=0;whiteSpace=wrap;html=1;fillColor=#fff2cc;strokeColor=#d6b656;fontStyle=1" parent="1" vertex="1">
                    <mxGeometry x="730" y="640" width="100" height="50" as="geometry"/>
                </mxCell>
                <mxCell id="30" value="partition1" style="rounded=0;whiteSpace=wrap;html=1;fillColor=#ffe6cc;strokeColor=#d79b00;fontStyle=1" parent="1" vertex="1">
                    <mxGeometry x="830" y="640" width="100" height="50" as="geometry"/>
                </mxCell>
                <mxCell id="31" value="partitionN" style="rounded=0;whiteSpace=wrap;html=1;fillColor=#ffe6cc;strokeColor=#d79b00;fontStyle=1" parent="1" vertex="1">
                    <mxGeometry x="1030" y="640" width="100" height="50" as="geometry"/>
                </mxCell>
                <mxCell id="32" value="......" style="rounded=0;whiteSpace=wrap;html=1;fillColor=#ffe6cc;strokeColor=#d79b00;fontStyle=1" parent="1" vertex="1">
                    <mxGeometry x="930" y="640" width="100" height="50" as="geometry"/>
                </mxCell>
                <mxCell id="36" value="" style="endArrow=none;dashed=1;html=1;exitX=0;exitY=0;exitDx=0;exitDy=0;entryX=1;entryY=1;entryDx=0;entryDy=0;" parent="1" source="28" target="26" edge="1">
                    <mxGeometry width="50" height="50" relative="1" as="geometry">
                        <mxPoint x="630" y="520" as="sourcePoint"/>
                        <mxPoint x="680" y="470" as="targetPoint"/>
                    </mxGeometry>
                </mxCell>
                <mxCell id="37" value="" style="endArrow=none;dashed=1;html=1;exitX=1;exitY=0;exitDx=0;exitDy=0;entryX=0;entryY=1;entryDx=0;entryDy=0;" parent="1" source="31" target="8" edge="1">
                    <mxGeometry width="50" height="50" relative="1" as="geometry">
                        <mxPoint x="630" y="520" as="sourcePoint"/>
                        <mxPoint x="680" y="470" as="targetPoint"/>
                    </mxGeometry>
                </mxCell>
                <mxCell id="40" value="string" style="text;html=1;strokeColor=none;fillColor=none;align=center;verticalAlign=middle;whiteSpace=wrap;rounded=0;fontSize=14;fontStyle=1;fontColor=#006666;" parent="1" vertex="1">
                    <mxGeometry x="660" y="620" width="40" height="20" as="geometry"/>
                </mxCell>
                <mxCell id="41" value="int" style="text;html=1;strokeColor=none;fillColor=none;align=center;verticalAlign=middle;whiteSpace=wrap;rounded=0;fontSize=14;fontStyle=1;fontColor=#006666;" parent="1" vertex="1">
                    <mxGeometry x="760" y="620" width="40" height="20" as="geometry"/>
                </mxCell>
                <mxCell id="46" value="OffsetCommitRequest" style="text;html=1;strokeColor=none;fillColor=none;align=center;verticalAlign=middle;whiteSpace=wrap;rounded=0;fontSize=20;fontStyle=1" parent="1" vertex="1">
                    <mxGeometry x="630" y="360" width="280" height="20" as="geometry"/>
                </mxCell>
                <mxCell id="49" value="groupGenerationId" style="rounded=0;whiteSpace=wrap;html=1;fontSize=14;fillColor=#76608a;strokeColor=#432D57;fontColor=#ffffff;fontStyle=1" vertex="1" parent="1">
                    <mxGeometry x="490" y="450" width="150" height="60" as="geometry"/>
                </mxCell>
                <mxCell id="50" value="int" style="text;html=1;strokeColor=none;fillColor=none;align=center;verticalAlign=middle;whiteSpace=wrap;rounded=0;fontSize=14;fontStyle=1;fontColor=#006666;" vertex="1" parent="1">
                    <mxGeometry x="545" y="430" width="40" height="20" as="geometry"/>
                </mxCell>
                <mxCell id="51" value="consumerId" style="rounded=0;whiteSpace=wrap;html=1;fontSize=14;fillColor=#647687;strokeColor=#314354;fontColor=#ffffff;fontStyle=1" vertex="1" parent="1">
                    <mxGeometry x="640" y="450" width="130" height="60" as="geometry"/>
                </mxCell>
                <mxCell id="52" value="string" style="text;html=1;strokeColor=none;fillColor=none;align=center;verticalAlign=middle;whiteSpace=wrap;rounded=0;fontSize=14;fontStyle=1;fontColor=#006666;" vertex="1" parent="1">
                    <mxGeometry x="685" y="428" width="40" height="20" as="geometry"/>
                </mxCell>
                <mxCell id="53" value="partitionId" style="rounded=0;whiteSpace=wrap;html=1;fillColor=#b0e3e6;strokeColor=#0e8088;fontStyle=1" vertex="1" parent="1">
                    <mxGeometry x="680" y="760" width="100" height="50" as="geometry"/>
                </mxCell>
                <mxCell id="54" value="partitionOffset" style="rounded=0;whiteSpace=wrap;html=1;fillColor=#b1ddf0;strokeColor=#10739e;fontStyle=1" vertex="1" parent="1">
                    <mxGeometry x="780" y="760" width="100" height="50" as="geometry"/>
                </mxCell>
                <mxCell id="55" value="timestamp" style="rounded=0;whiteSpace=wrap;html=1;fillColor=#d0cee2;strokeColor=#56517e;fontStyle=1" vertex="1" parent="1">
                    <mxGeometry x="880" y="760" width="100" height="50" as="geometry"/>
                </mxCell>
                <mxCell id="56" value="metadata" style="rounded=0;whiteSpace=wrap;html=1;fillColor=#bac8d3;strokeColor=#23445d;fontStyle=1" vertex="1" parent="1">
                    <mxGeometry x="980" y="760" width="100" height="50" as="geometry"/>
                </mxCell>
                <mxCell id="57" value="" style="endArrow=none;dashed=1;html=1;exitX=0;exitY=0;exitDx=0;exitDy=0;entryX=0;entryY=1;entryDx=0;entryDy=0;" edge="1" parent="1" source="53" target="30">
                    <mxGeometry width="50" height="50" relative="1" as="geometry">
                        <mxPoint x="640" y="650" as="sourcePoint"/>
                        <mxPoint x="940" y="520" as="targetPoint"/>
                    </mxGeometry>
                </mxCell>
                <mxCell id="58" value="" style="endArrow=none;dashed=1;html=1;exitX=1;exitY=0;exitDx=0;exitDy=0;entryX=0;entryY=1;entryDx=0;entryDy=0;" edge="1" parent="1" source="56" target="32">
                    <mxGeometry width="50" height="50" relative="1" as="geometry">
                        <mxPoint x="650" y="660" as="sourcePoint"/>
                        <mxPoint x="950" y="530" as="targetPoint"/>
                    </mxGeometry>
                </mxCell>
                <mxCell id="59" value="int" style="text;html=1;strokeColor=none;fillColor=none;align=center;verticalAlign=middle;whiteSpace=wrap;rounded=0;fontSize=14;fontStyle=1;fontColor=#006666;" vertex="1" parent="1">
                    <mxGeometry x="710" y="740" width="40" height="20" as="geometry"/>
                </mxCell>
                <mxCell id="60" value="long" style="text;html=1;strokeColor=none;fillColor=none;align=center;verticalAlign=middle;whiteSpace=wrap;rounded=0;fontSize=14;fontStyle=1;fontColor=#006666;" vertex="1" parent="1">
                    <mxGeometry x="810" y="740" width="40" height="20" as="geometry"/>
                </mxCell>
                <mxCell id="62" value="long" style="text;html=1;strokeColor=none;fillColor=none;align=center;verticalAlign=middle;whiteSpace=wrap;rounded=0;fontSize=14;fontStyle=1;fontColor=#006666;" vertex="1" parent="1">
                    <mxGeometry x="910" y="740" width="40" height="20" as="geometry"/>
                </mxCell>
                <mxCell id="63" value="string" style="text;html=1;strokeColor=none;fillColor=none;align=center;verticalAlign=middle;whiteSpace=wrap;rounded=0;fontSize=14;fontStyle=1;fontColor=#006666;" vertex="1" parent="1">
                    <mxGeometry x="1010" y="740" width="40" height="20" as="geometry"/>
                </mxCell>
            </root>
        </mxGraphModel>
    </diagram>
</mxfile>